<?xml version="1.0" standalone="no"?>
<!DOCTYPE svg PUBLIC "-//W3C//DTD SVG 20010904//EN"
 "http://www.w3.org/TR/2001/REC-SVG-20010904/DTD/svg10.dtd">
<svg version="1.0" xmlns="http://www.w3.org/2000/svg"
 width="16.000000pt" height="16.000000pt" viewBox="0 0 16.000000 16.000000"
 preserveAspectRatio="xMidYMid meet">
<metadata>
Created by potrace 1.11, written by Peter Selinger 2001-2013
</metadata>
<g transform="translate(0.000000,16.000000) scale(0.001902,-0.001902)"
fill="#000000" stroke="none">
<path d="M3939 8406 c-2 -2 -40 -7 -84 -10 -98 -8 -173 -17 -255 -31 -19 -4
-46 -8 -60 -10 -44 -7 -82 -15 -155 -31 -5 -1 -21 -4 -35 -7 -94 -20 -378
-112 -395 -128 -5 -5 -15 -9 -22 -9 -13 0 -243 -109 -253 -119 -3 -4 -18 -13
-35 -21 -29 -15 -31 -15 -75 18 -91 68 -259 147 -405 190 -171 51 -315 47
-370 -12 -44 -47 -52 -166 -20 -301 1 -5 5 -17 8 -25 3 -8 13 -40 22 -70 22
-70 125 -284 159 -329 14 -19 26 -38 26 -41 0 -4 -35 -7 -77 -7 -231 -1 -439
-57 -663 -179 -97 -53 -240 -143 -266 -168 -6 -6 -23 -20 -38 -31 -163 -118
-456 -422 -456 -472 0 -27 37 -66 78 -81 15 -6 56 -21 92 -35 67 -26 228 -71
287 -81 18 -3 48 -9 65 -13 18 -4 106 -7 196 -7 142 -1 184 -6 154 -18 -15 -6
-126 -151 -208 -273 -167 -248 -281 -467 -402 -770 -70 -178 -154 -492 -187
-705 -3 -25 -9 -58 -11 -75 -22 -133 -35 -329 -34 -500 0 -77 0 -151 -1 -165
0 -14 0 -29 0 -35 0 -5 3 -44 5 -85 3 -41 7 -88 10 -105 3 -16 8 -59 11 -95 4
-36 9 -72 11 -80 3 -8 8 -33 10 -55 3 -22 7 -49 9 -60 2 -11 7 -33 10 -50 3
-16 9 -48 15 -70 5 -22 16 -71 25 -110 21 -88 85 -307 95 -320 4 -5 13 -31 20
-58 7 -26 17 -50 21 -53 5 -3 9 -12 9 -20 0 -37 162 -373 255 -528 34 -56 67
-112 75 -126 8 -14 17 -27 20 -30 10 -10 50 -69 50 -74 0 -3 7 -14 15 -23 8
-10 38 -50 67 -89 105 -142 243 -300 357 -408 40 -39 78 -77 85 -84 6 -6 49
-45 96 -85 47 -39 90 -77 96 -82 6 -6 34 -28 62 -50 29 -21 48 -41 44 -44 -18
-13 -111 -164 -143 -231 -20 -44 -70 -193 -75 -228 -3 -19 -8 -44 -11 -56 -3
-11 -7 -70 -9 -131 -2 -81 1 -123 13 -157 18 -57 80 -129 136 -162 83 -47 218
-83 337 -89 25 -1 50 -5 55 -9 11 -7 1046 -8 1057 -1 4 2 45 6 90 8 46 2 99 6
118 10 19 3 62 10 95 16 151 25 292 97 342 173 19 29 47 99 48 121 0 5 73 10
182 10 l182 1 7 -30 c11 -56 57 -127 107 -166 93 -74 239 -115 492 -137 105
-9 1123 -9 1200 1 262 31 401 98 461 223 25 53 28 67 27 163 -1 125 -5 156
-33 258 -38 142 -116 301 -196 398 l-34 42 38 28 c167 127 405 357 547 530 22
26 48 56 58 66 9 10 17 22 17 27 0 5 4 11 8 13 5 2 37 41 71 88 33 47 65 90
69 95 4 6 25 37 46 70 21 33 47 72 57 87 11 15 19 29 19 32 0 2 20 39 45 80
42 71 185 358 185 371 0 3 9 25 19 48 29 64 111 295 111 312 0 8 4 23 9 33 6
9 19 55 31 101 21 81 25 96 35 143 2 13 8 37 11 53 4 17 8 40 10 52 1 11 4 29
8 40 3 10 8 36 11 58 3 23 7 50 9 61 2 11 7 47 11 79 4 33 8 70 10 83 17 105
23 441 12 617 -8 122 -12 159 -33 315 -5 37 -21 127 -29 170 -8 40 -19 95 -20
100 -1 3 -5 19 -9 35 -17 70 -65 245 -73 265 -8 20 -8 20 -18 55 -26 97 -131
343 -221 520 -73 143 -88 170 -96 173 -5 2 -8 9 -8 16 0 7 -8 21 -18 32 -10
10 -21 27 -25 37 -4 10 -35 59 -69 109 -35 49 -67 97 -73 106 -5 9 -12 19 -15
22 -3 3 -35 43 -71 90 l-66 85 161 0 c89 1 175 4 191 7 17 4 40 9 51 12 12 2
37 7 55 10 100 16 338 100 391 138 31 21 35 55 13 90 -42 65 -252 279 -365
371 -41 34 -84 70 -94 79 -11 10 -23 18 -26 18 -6 0 -22 12 -67 50 -7 5 -17
10 -23 10 -5 0 -10 5 -10 10 0 6 -6 10 -14 10 -8 0 -16 4 -18 8 -4 10 -76 52
-185 106 -140 70 -283 115 -449 142 -21 3 -82 6 -135 7 -125 2 -134 12 -86 89
108 171 181 391 181 543 0 80 -2 94 -24 123 -34 45 -81 64 -165 65 -87 0 -143
-11 -290 -57 -66 -21 -211 -91 -286 -138 l-77 -49 -108 55 c-60 30 -126 61
-146 70 -21 9 -53 23 -71 31 -51 22 -266 92 -342 111 -51 13 -165 36 -185 38
-14 2 -34 6 -45 9 -11 3 -40 8 -65 11 -25 3 -55 8 -67 10 -12 3 -53 8 -90 11
-37 4 -79 9 -93 12 -29 6 -616 14 -621 9z"/>
</g>
</svg>
